<svg width="75" height="75" viewBox="0 0 75 75" fill="none" xmlns="http://www.w3.org/2000/svg">
	<g id='headerLogo'>
		<path d="M2.41669 22L14.0233 40L29.5 27L2.41669 22Z"  stroke-width="4" stroke-linecap="round" stroke-linejoin="round"/>
		<path d="M56.5833 22L44.9768 40L29.5 27L56.5833 22Z"  stroke-width="4" stroke-linecap="round" stroke-linejoin="round"/>
		<path d="M14.6042 40H44.3959L29.5 27L14.6042 40Z"  stroke-width="4" stroke-linecap="round" stroke-linejoin="round"/>
		<path d="M13.25 24L29.5 2L45.75 24"  stroke-width="4" stroke-linejoin="round"/>
	</g>

	<g id='backendIcon'>
		<path d="M23.0468 52.4406L26.9531 47.5594L14.3781 37.5L26.9531 27.4406L23.0468 22.5594L7.42185 35.0594C7.05574 35.3521 6.76018 35.7235 6.55707 36.146C6.35396 36.5684 6.2485 37.0312 6.2485 37.5C6.2485 37.9687 6.35396 38.4315 6.55707 38.854C6.76018 39.2765 7.05574 39.6478 7.42185 39.9406L23.0468 52.4406ZM51.9531 22.5594L48.0468 27.4406L60.6218 37.5L48.0468 47.5594L51.9531 52.4406L67.5781 39.9406C67.9442 39.6478 68.2398 39.2765 68.4429 38.854C68.646 38.4315 68.7514 37.9687 68.7514 37.5C68.7514 37.0312 68.646 36.5684 68.4429 36.146C68.2398 35.7235 67.9442 35.3521 67.5781 35.0594L51.9531 22.5594ZM46.8 10.05L34.3 66.3L28.1968 64.9437L40.6968 8.69373L46.8 10.05Z" fill="#00C4F0"/>
	</g>
	<g id='frontendIcon'>
		<path d="M0 9.75C0 9.75 0 0.375 9.375 0.375H65.625C65.625 0.375 75 0.375 75 9.75V37.875C75 37.875 75 47.25 65.625 47.25H46.875C46.875 50.3766 47.2641 52.7203 48.0469 54.2812H51.5625C52.1841 54.2812 52.7802 54.5282 53.2198 54.9677C53.6593 55.4073 53.9062 56.0034 53.9062 56.625C53.9062 57.2466 53.6593 57.8427 53.2198 58.2823C52.7802 58.7218 52.1841 58.9688 51.5625 58.9688H23.4375C22.8159 58.9688 22.2198 58.7218 21.7802 58.2823C21.3407 57.8427 21.0938 57.2466 21.0938 56.625C21.0938 56.0034 21.3407 55.4073 21.7802 54.9677C22.2198 54.5282 22.8159 54.2812 23.4375 54.2812H26.9531C27.7359 52.7203 28.125 50.3766 28.125 47.25H9.375C9.375 47.25 0 47.25 0 37.875V9.75ZM6.55312 5.74219C6.03823 6.10067 5.62743 6.5891 5.3625 7.15781C4.96293 7.98338 4.73339 8.88085 4.6875 9.79688V37.875C4.6875 39.3984 5.05312 40.2281 5.36719 40.6969C5.69531 41.1891 6.16406 41.5781 6.78281 41.8875C7.57283 42.2702 8.42893 42.4977 9.30469 42.5578L9.42188 42.5625H65.625C67.1484 42.5625 67.9781 42.1969 68.4469 41.8828C68.9618 41.5243 69.3726 41.0359 69.6375 40.4672C70.0202 39.6772 70.2477 38.8211 70.3078 37.9453L70.3125 37.8281V9.75C70.3125 8.22656 69.9469 7.39687 69.6328 6.92812C69.2745 6.41308 68.786 6.00224 68.2172 5.7375C67.3916 5.33793 66.4942 5.10839 65.5781 5.0625H9.375C7.85156 5.0625 7.02187 5.42812 6.55312 5.74219Z" fill="#00C4F0"/>
	</g>
	<g id='designIcon'>
		<g clip-path="url(#clip0_4_6719)">
		<path d="M19.2431 0H74.0627V16.3094H19.2431V0Z" fill="#00C4F0"/>
		<path d="M19.2431 29.3438H74.0627V45.6531H19.2431V29.3438Z" fill="#00C4F0"/>
		<path d="M19.2431 58.6906H74.0627V75H19.2431V58.6906Z" fill="#00C4F0"/>
		<path d="M0 0H13.9795V16.3094H0V0Z" fill="#00C4F0"/>
		<path d="M0 29.3438H13.9795V45.6531H0V29.3438Z" fill="#00C4F0"/>
		<path d="M0 58.6906H13.9795V75H0V58.6906Z" fill="#00C4F0"/>
		</g>
		<defs>
		<clipPath id="clip0_4_6719">
		<rect width="75" height="75" fill="white"/>
		</clipPath>
		</defs>
	</g>
	<g id='logoIcon'>
		<path d="M9.375 37.5H37.5V65.625H9.375V37.5Z" fill="#00C4F0"/>
		<path d="M37.5 9.375H65.625V37.5H37.5V9.375Z" fill="#00C4F0"/>
	</g>
	<g id='motionIcon'>
		<path d="M43.75 6.25H12.5C10.8424 6.25 9.25268 6.90848 8.08058 8.08058C6.90848 9.25268 6.25 10.8424 6.25 12.5V43.75H12.5V12.5H43.75V6.25ZM56.25 18.75H25C23.3424 18.75 21.7527 19.4085 20.5806 20.5806C19.4085 21.7527 18.75 23.3424 18.75 25V56.25H25V25H56.25V18.75ZM62.5 31.25H37.5C35.8424 31.25 34.2527 31.9085 33.0806 33.0806C31.9085 34.2527 31.25 35.8424 31.25 37.5V62.5C31.25 64.1576 31.9085 65.7473 33.0806 66.9194C34.2527 68.0915 35.8424 68.75 37.5 68.75H62.5C65.9375 68.75 68.75 65.9375 68.75 62.5V37.5C68.75 34.0625 65.9375 31.25 62.5 31.25Z" fill="#00C4F0"/>
	</g>
	<g id='productDesignIcon'>
		<path fill-rule="evenodd" clip-rule="evenodd" d="M63.498 78.6435C63.4984 78.9518 63.438 79.2571 63.3202 79.542C63.2024 79.8269 63.0295 80.0857 62.8115 80.3037C62.5935 80.5217 62.3347 80.6946 62.0498 80.8124C61.7649 80.9302 61.4596 80.9906 61.1513 80.9902L34.6348 80.9902C34.3265 80.9906 34.0212 80.9302 33.7363 80.8124C33.4514 80.6946 33.1925 80.5217 32.9745 80.3037C32.7566 80.0857 32.5837 79.8269 32.4659 79.542C32.3481 79.2571 32.2877 78.9518 32.2881 78.6435L32.2881 66.0349L24.0547 52.306C23.4275 51.2609 23.0828 50.0707 23.0543 48.8521C23.0258 47.6336 23.3146 46.4286 23.8923 45.3553L47.893 0.777771L71.8971 45.3586C72.4736 46.4311 72.7617 47.6349 72.7332 48.8521C72.7047 50.0693 72.3607 51.2583 71.7347 52.3027L63.498 66.0283L63.498 78.6435ZM59.8255 63.0385L67.7141 49.893C67.9236 49.5441 68.0387 49.1467 68.048 48.7399C68.0573 48.3331 67.9605 47.9308 67.7672 47.5728L47.8964 10.6651L28.0189 47.5794C27.8279 47.9365 27.7327 48.3371 27.7426 48.742C27.7524 49.1468 27.8671 49.5423 28.0753 49.8897L35.9639 63.0418L59.8288 63.0418L59.8255 63.0385Z" fill="#00C4F0"/>
		<path fill-rule="evenodd" clip-rule="evenodd" d="M47.6943 11.0398L44.5786 42.1834C43.923 42.839 43.4766 43.6742 43.2957 44.5835C43.1149 45.4928 43.2077 46.4353 43.5625 47.2918C43.9173 48.1483 44.5181 48.8804 45.2889 49.3955C46.0598 49.9106 46.9661 50.1855 47.8932 50.1855C48.8203 50.1855 49.7265 49.9106 50.4974 49.3955C51.2682 48.8804 51.8691 48.1483 52.2238 47.2918C52.5786 46.4353 52.6715 45.4928 52.4906 44.5835C52.3097 43.6742 51.8633 42.839 51.2077 42.1834L48.092 11.0398L47.8932 10.6685L47.6943 11.0398Z" fill="#00C4F0"/>
	</g>
	<g id='uxuiIcon'>
		<path d="M0.8125 7.39062V25.625C0.8125 27.1016 0.976562 28.5547 1.30469 29.9141C2.875 36.4297 8.05469 41.0234 15.3672 41.0234C22.6797 41.0234 27.8359 36.4297 29.4062 29.9141C29.7109 28.5547 29.8984 27.1016 29.8984 25.625V7.39062H22.8906V25.7422C22.8906 26.8203 22.75 27.875 22.4688 28.8828C21.6016 32.0234 19.2812 34.5312 15.3438 34.5312C11.4531 34.5312 9.13281 32.0234 8.24219 28.8828C7.96094 27.875 7.82031 26.8203 7.82031 25.7422V7.39062H0.8125ZM32.6641 41H41.3125L49.5625 28.9062L57.8125 41H66.4844L53.6172 23.2578L65.1016 7.41406H56.5L49.5625 17.5625L42.625 7.41406H34.0234L45.5078 23.2578L32.6641 41ZM89.1953 0.96875L67.7969 47.7266H75.1797L96.5781 0.96875H89.1953ZM100.328 7.39062V25.625C100.328 27.1016 100.492 28.5547 100.82 29.9141C102.391 36.4297 107.57 41.0234 114.883 41.0234C122.195 41.0234 127.352 36.4297 128.922 29.9141C129.227 28.5547 129.414 27.1016 129.414 25.625V7.39062H122.406V25.7422C122.406 26.8203 122.266 27.875 121.984 28.8828C121.117 32.0234 118.797 34.5312 114.859 34.5312C110.969 34.5312 108.648 32.0234 107.758 28.8828C107.477 27.875 107.336 26.8203 107.336 25.7422V7.39062H100.328ZM135.414 41H142.445V7.39062H135.414V41Z" fill="#00C4F0"/>
	</g>
	<g id='arrowPrev'>
		<path d="M11.5 1.5L1 12L11.5 22.5" stroke="#E4E4E4" stroke-width="2" stroke-linecap="round" stroke-linejoin="round"/>
		<path d="M1 12H25" stroke="#E4E4E4" stroke-width="2" stroke-linecap="round" stroke-linejoin="round"/>
	</g>
	<g id='arrowNext'>
		<path d="M14.5 1.5L25 12L14.5 22.5" stroke="#E4E4E4" stroke-width="2" stroke-linecap="round" stroke-linejoin="round"/>
		<path d="M25 12H1" stroke="#E4E4E4" stroke-width="2" stroke-linecap="round" stroke-linejoin="round"/>
	</g>
	<g id='arrowUp'>
		<path d="M22.5 11.5L12 1L1.5 11.5" stroke="#E4E4E4" stroke-width="2" stroke-linecap="round" stroke-linejoin="round"/>
		<path d="M12 1L12 25" stroke="#E4E4E4" stroke-width="2" stroke-linecap="round" stroke-linejoin="round"/>
	</g>
</svg>
