<svg width="90" height="90" viewBox="0 0 90 90" fill="none" xmlns="http://www.w3.org/2000/svg">
<circle cx="45" cy="45" r="45" fill="url(#paint0_linear_39144_5)"/>
<path d="M29.6289 45.0234V39.6621H36.0098C37.0469 39.6621 37.5215 39.75 37.9434 39.9258C38.9629 40.3301 39.7188 41.1738 39.7188 42.3516C39.7188 43.5645 38.9277 44.373 37.9434 44.7773C37.5039 44.9531 37.0293 45.0234 36.0273 45.0234H29.6289ZM29.6289 60V49.8574H36.7129C38.8574 49.8574 40.3164 49.4355 41.5117 48.6797C43.5859 47.3789 44.9043 45.1113 44.9043 42.3516C44.9043 39.4863 43.5859 37.2539 41.5469 35.9883C40.334 35.2148 38.8574 34.8105 36.7129 34.8105H24.373V60H29.6289ZM46.8906 55.6406C50.3887 58.7695 54.2734 60 57.6309 60C63.0449 60 67.2461 56.7305 67.2461 52.2832C67.2461 46.5703 62.1133 45.1465 57.877 44.4434C54.3086 43.8457 52.2344 43.3711 52.2344 41.7188C52.2344 40.207 54.1855 39.5391 56.0312 39.5391C58.2988 39.5391 60.7422 40.3828 62.4121 41.7891L65.4004 38.0449C62.6055 35.8477 59.2832 34.7754 56.1016 34.7754C50.3535 34.7754 47.1367 38.0625 47.1367 42.1934C47.1367 46.2363 50.5117 47.9941 54.7305 48.873C58.4395 49.6465 62.0781 49.9453 62.0781 52.3008C62.0781 54.2344 59.6875 55.1133 57.543 55.1133C54.7832 55.1133 52.1465 53.7773 50.0547 51.8613L46.8906 55.6406Z" fill="#00C4F0"/>
<defs>
<linearGradient id="paint0_linear_39144_5" x1="0" y1="0" x2="96.7553" y2="83.157" gradientUnits="userSpaceOnUse">
<stop stop-color="#414141"/>
<stop offset="1" stop-color="#2D2D2D"/>
</linearGradient>
</defs>
</svg>
