<svg width="90" height="90" viewBox="0 0 90 90" fill="none" xmlns="http://www.w3.org/2000/svg">
<circle cx="45" cy="45" r="45" fill="url(#paint0_linear_39144_6)"/>
<path d="M29.1094 34.793V48.4688C29.1094 49.5762 29.2324 50.666 29.4785 51.6855C30.6562 56.5723 34.541 60.0176 40.0254 60.0176C45.5098 60.0176 49.377 56.5723 50.5547 51.6855C50.7832 50.666 50.9238 49.5762 50.9238 48.4688V34.793H45.668V48.5566C45.668 49.3652 45.5625 50.1562 45.3516 50.9121C44.7012 53.2676 42.9609 55.1484 40.0078 55.1484C37.0898 55.1484 35.3496 53.2676 34.6816 50.9121C34.4707 50.1562 34.3652 49.3652 34.3652 48.5566V34.793H29.1094ZM55.4238 60H60.6973V34.793H55.4238V60Z" fill="#00C4F0"/>
<defs>
<linearGradient id="paint0_linear_39144_6" x1="0" y1="0" x2="96.7553" y2="83.157" gradientUnits="userSpaceOnUse">
<stop stop-color="#414141"/>
<stop offset="1" stop-color="#2D2D2D"/>
</linearGradient>
</defs>
</svg>
