<svg width="90" height="90" viewBox="0 0 90 90" fill="none" xmlns="http://www.w3.org/2000/svg">
<path d="M90 45C90 69.8528 69.8528 90 45 90C20.1472 90 0 69.8528 0 45C0 20.1472 20.1472 0 45 0C69.8528 0 90 20.1472 90 45Z" fill="url(#paint0_linear_39144_4)"/>
<path d="M21.1094 34.793V48.4688C21.1094 49.5762 21.2324 50.666 21.4785 51.6855C22.6562 56.5723 26.541 60.0176 32.0254 60.0176C37.5098 60.0176 41.377 56.5723 42.5547 51.6855C42.7832 50.666 42.9238 49.5762 42.9238 48.4688V34.793H37.668V48.5566C37.668 49.3652 37.5625 50.1562 37.3516 50.9121C36.7012 53.2676 34.9609 55.1484 32.0078 55.1484C29.0898 55.1484 27.3496 53.2676 26.6816 50.9121C26.4707 50.1562 26.3652 49.3652 26.3652 48.5566V34.793H21.1094ZM44.998 60H51.4844L57.6719 50.9297L63.8594 60H70.3633L60.7129 46.6934L69.3262 34.8105H62.875L57.6719 42.4219L52.4688 34.8105H46.0176L54.6309 46.6934L44.998 60Z" fill="#00C4F0"/>
<defs>
<linearGradient id="paint0_linear_39144_4" x1="0" y1="0" x2="96.7553" y2="83.157" gradientUnits="userSpaceOnUse">
<stop stop-color="#414141"/>
<stop offset="1" stop-color="#2D2D2D"/>
</linearGradient>
</defs>
</svg>
